<svg width="30" height="30" viewBox="0 0 46 46" fill="none" xmlns="http://www.w3.org/2000/svg">
<path d="M18.9175 23.2798H21.6416V26.0039C21.6416 26.3642 21.7847 26.7097 22.0395 26.9645C22.2942 27.2192 22.6397 27.3623 23 27.3623C23.3603 27.3623 23.7058 27.2192 23.9606 26.9645C24.2153 26.7097 24.3585 26.3642 24.3585 26.0039V23.2798H27.0825C27.2609 23.2798 27.4376 23.2447 27.6024 23.1764C27.7672 23.1082 27.9169 23.0081 28.0431 22.882C28.1692 22.7558 28.2693 22.6061 28.3375 22.4413C28.4058 22.2764 28.441 22.0998 28.441 21.9214C28.441 21.743 28.4058 21.5664 28.3375 21.4016C28.2693 21.2367 28.1692 21.087 28.0431 20.9608C27.9169 20.8347 27.7672 20.7346 27.6024 20.6664C27.4376 20.5981 27.2609 20.563 27.0825 20.563H24.3585V17.8389C24.3585 17.4786 24.2153 17.1331 23.9606 16.8783C23.7058 16.6236 23.3603 16.4805 23 16.4805C22.6397 16.4805 22.2942 16.6236 22.0395 16.8783C21.7847 17.1331 21.6416 17.4786 21.6416 17.8389V20.563H18.9175C18.7391 20.563 18.5625 20.5981 18.3977 20.6664C18.2329 20.7346 18.0831 20.8347 17.957 20.9608C17.8308 21.087 17.7308 21.2367 17.6625 21.4016C17.5942 21.5664 17.5591 21.743 17.5591 21.9214C17.5591 22.0998 17.5942 22.2764 17.6625 22.4413C17.7308 22.6061 17.8308 22.7558 17.957 22.882C18.0831 23.0081 18.2329 23.1082 18.3977 23.1764C18.5625 23.2447 18.7391 23.2798 18.9175 23.2798Z" fill="#3E5EA9"/>
<path d="M33.5439 6.54781H28.9943C28.891 5.1609 28.2681 3.86407 27.25 2.91661C26.2319 1.96915 24.8937 1.44091 23.503 1.4375H22.4968C21.106 1.44091 19.7678 1.96915 18.7497 2.91661C17.7317 3.86407 17.1087 5.1609 17.0055 6.54781H12.4558C11.0445 6.54781 9.69095 7.10795 8.69235 8.1052C7.69375 9.10245 7.13179 10.4553 7.12988 11.8666V39.2366C7.12988 40.6491 7.69101 42.0038 8.68981 43.0026C9.68862 44.0014 11.0433 44.5625 12.4558 44.5625H33.5439C34.9565 44.5625 36.3111 44.0014 37.31 43.0026C38.3088 42.0038 38.8699 40.6491 38.8699 39.2366V11.8666C38.868 10.4553 38.306 9.10245 37.3074 8.1052C36.3088 7.10795 34.9552 6.54781 33.5439 6.54781ZM22.4968 4.16156H23.503C24.1721 4.16442 24.8182 4.40654 25.3244 4.84419C25.8306 5.28183 26.1635 5.88611 26.263 6.54781H19.7368C19.8363 5.88611 20.1692 5.28183 20.6754 4.84419C21.1816 4.40654 21.8276 4.16442 22.4968 4.16156ZM18.3496 9.26469H31.2871C31.0115 9.96705 30.531 10.5702 29.908 10.9958C29.2851 11.4214 28.5484 11.6497 27.7939 11.6509H18.1986C17.4442 11.6497 16.7075 11.4214 16.0845 10.9958C15.4616 10.5702 14.981 9.96705 14.7055 9.26469H18.3496ZM36.1458 39.2366C36.1458 39.9266 35.8717 40.5884 35.3837 41.0764C34.8958 41.5643 34.234 41.8384 33.5439 41.8384H12.4558C11.7658 41.8384 11.104 41.5643 10.616 41.0764C10.1281 40.5884 9.85395 39.9266 9.85395 39.2366V11.8666C9.85765 11.278 10.0608 10.708 10.4303 10.2498C10.7997 9.7916 11.3136 9.47219 11.888 9.34375C12.2139 10.7735 13.0159 12.0501 14.1625 12.9642C15.3091 13.8784 16.7322 14.3758 18.1986 14.375H27.8011C29.2675 14.3758 30.6907 13.8784 31.8373 12.9642C32.9839 12.0501 33.7859 10.7735 34.1118 9.34375C34.6886 9.47274 35.2043 9.79427 35.574 10.2554C35.9437 10.7166 36.1454 11.2899 36.1458 11.8809V39.2366Z" fill="#3E5EA9"/>
<path d="M30.2809 29.4684H15.719C15.5318 29.4548 15.3439 29.48 15.1668 29.5422C14.9898 29.6045 14.8275 29.7026 14.69 29.8304C14.5526 29.9582 14.443 30.113 14.368 30.2851C14.2931 30.4571 14.2544 30.6428 14.2544 30.8305C14.2544 31.0181 14.2931 31.2038 14.368 31.3759C14.443 31.5479 14.5526 31.7027 14.69 31.8305C14.8275 31.9583 14.9898 32.0564 15.1668 32.1187C15.3439 32.181 15.5318 32.2061 15.719 32.1925H30.2809C30.4681 32.2061 30.6561 32.181 30.8331 32.1187C31.0102 32.0564 31.1725 31.9583 31.3099 31.8305C31.4473 31.7027 31.5569 31.5479 31.6319 31.3759C31.7069 31.2038 31.7455 31.0181 31.7455 30.8305C31.7455 30.6428 31.7069 30.4571 31.6319 30.2851C31.5569 30.113 31.4473 29.9582 31.3099 29.8304C31.1725 29.7026 31.0102 29.6045 30.8331 29.5422C30.6561 29.48 30.4681 29.4548 30.2809 29.4684ZM30.2809 37.1878H15.719C15.5318 37.1742 15.3439 37.1993 15.1668 37.2616C14.9898 37.3239 14.8275 37.422 14.69 37.5498C14.5526 37.6776 14.443 37.8324 14.368 38.0044C14.2931 38.1765 14.2544 38.3622 14.2544 38.5498C14.2544 38.7375 14.2931 38.9232 14.368 39.0953C14.443 39.2673 14.5526 39.4221 14.69 39.5499C14.8275 39.6777 14.9898 39.7758 15.1668 39.8381C15.3439 39.9004 15.5318 39.9255 15.719 39.9119H30.2809C30.4681 39.9255 30.6561 39.9004 30.8331 39.8381C31.0102 39.7758 31.1725 39.6777 31.3099 39.5499C31.4473 39.4221 31.5569 39.2673 31.6319 39.0953C31.7069 38.9232 31.7455 38.7375 31.7455 38.5498C31.7455 38.3622 31.7069 38.1765 31.6319 38.0044C31.5569 37.8324 31.4473 37.6776 31.3099 37.5498C31.1725 37.422 31.0102 37.3239 30.8331 37.2616C30.6561 37.1993 30.4681 37.1742 30.2809 37.1878Z" fill="#3E5EA9"/>
</svg>
